<svg width="261" height="64" viewBox="0 0 261 64" fill="none" xmlns="http://www.w3.org/2000/svg">
<g clip-path="url(#clip0_6121_30855)">
<path d="M0 16.1377V63.6904H47.5526C56.3074 63.6904 63.4035 56.5942 63.4035 47.8395V16.1377C63.4035 7.38298 56.3074 0.286865 47.5526 0.286865H15.8509C7.09612 0.286865 0 7.38298 0 16.1377ZM47.578 57.6467H6.04362V16.1124C6.04362 10.7104 10.4235 6.33049 15.8255 6.33049H47.578C52.98 6.33049 57.3599 10.7104 57.3599 16.1124V47.8648C57.3599 53.2668 52.98 57.6467 47.578 57.6467Z" fill="#080F11"/>
<path fill-rule="evenodd" clip-rule="evenodd" d="M47.6882 16.5966C48.8024 15.4824 50.6091 15.4825 51.7234 16.5966L51.9802 16.8534C53.0942 17.9676 53.0943 19.7744 51.9802 20.8885L29.9607 42.9061C29.8884 42.999 29.8117 43.0903 29.7263 43.1757L29.4704 43.4325C28.974 43.9289 28.3399 44.2016 27.6911 44.2557C27.6772 44.2571 27.6631 44.2565 27.6491 44.2577C27.5811 44.2624 27.5132 44.2676 27.445 44.2674C26.7054 44.2747 25.9635 43.9978 25.3991 43.4335L25.1433 43.1776C25.0546 43.0889 24.9747 42.9941 24.9001 42.8973L12.9753 30.9725C11.8611 29.8583 11.8611 28.0516 12.9753 26.9374L13.2322 26.6805C14.3463 25.5669 16.1522 25.5669 17.2663 26.6805L27.4353 36.8495L47.6882 16.5966Z" fill="url(#paint0_linear_6121_30855)"/>
<path d="M82.6153 27.951H74.8623V21.7476H97.51V27.951H89.8052V57.1774H82.6153V27.951Z" fill="#080F11"/>
<path d="M96.1504 45.524C96.1504 38.5699 100.989 33.353 107.38 33.353C110.528 33.353 113.536 34.6693 115.088 36.7844H115.133V33.8247H122.087V57.1775H115.133V54.4512H115.088C113.348 56.5181 110.53 57.6467 107.335 57.6467C100.662 57.6467 96.1504 52.7596 96.1504 45.524ZM115.554 45.3845C115.554 41.5777 112.922 39.1354 109.351 39.1354C105.78 39.1354 103.196 41.7198 103.196 45.4783C103.196 49.2369 105.592 51.8694 109.163 51.8694C113.016 51.8694 115.554 49.1912 115.554 45.3845Z" fill="#080F11"/>
<path d="M125.142 53.9819L128.195 49.4244C129.605 51.0222 131.908 52.2903 134.305 52.2903C136.09 52.2903 137.5 51.4914 137.5 50.0357C137.5 48.6737 136.75 48.202 133.318 47.5452C129.136 46.6524 127.069 44.3978 127.069 40.8269C127.069 36.5992 130.452 33.3555 135.76 33.3555C139.144 33.3555 141.634 34.3902 143.278 35.6101L141.023 40.0737C139.519 38.8995 137.921 38.2883 136.323 38.2883C134.913 38.2883 133.739 38.8056 133.739 39.9799C133.739 41.1541 134.538 41.7197 137.358 42.3765C142.009 43.4569 144.125 45.43 144.125 49.2368C144.125 54.0757 140.693 57.6466 134.538 57.6466C130.31 57.6466 126.833 55.813 125.142 53.9819Z" fill="#080F11"/>
<path d="M155.166 18.1766V42.6098H155.26L163.201 33.8221H171.753L161.839 44.5829L172.506 57.1748H163.718L155.402 47.4005L155.166 47.6364V57.1748H148.258V18.1741H155.166V18.1766Z" fill="#080F11"/>
<path d="M178.147 27.951H170.394V21.7476H193.041V27.951H185.334V57.1774H178.144V27.951H178.147Z" fill="#080F11"/>
<path d="M191.679 45.524C191.679 38.5699 196.518 33.353 202.909 33.353C206.057 33.353 209.065 34.6693 210.614 36.7844H210.662V33.8247H217.616V57.1775H210.662V54.4512H210.614C208.877 56.5181 206.057 57.6467 202.861 57.6467C196.189 57.6467 191.677 52.7596 191.677 45.524H191.679ZM211.086 45.3845C211.086 41.5777 208.453 39.1354 204.882 39.1354C201.312 39.1354 198.727 41.7198 198.727 45.4783C198.727 49.2369 201.124 51.8694 204.695 51.8694C208.547 51.8694 211.086 49.1912 211.086 45.3845Z" fill="#080F11"/>
<path d="M230.024 18.1768V57.1775H223.115V18.1768H230.024Z" fill="#080F11"/>
<path d="M242.663 18.1766V42.6098H242.757L250.698 33.8221H259.25L249.336 44.5829L260.003 57.1748H251.215L242.899 47.4005L242.663 47.6364V57.1748H235.755V18.1741H242.663V18.1766Z" fill="#080F11"/>
</g>
<defs>
<linearGradient id="paint0_linear_6121_30855" x1="12.1396" y1="30.0143" x2="52.8158" y2="30.0143" gradientUnits="userSpaceOnUse">
<stop stop-color="#A3D9E8"/>
<stop offset="0.5" stop-color="#17A7CF"/>
<stop offset="1" stop-color="#007392"/>
</linearGradient>
<clipPath id="clip0_6121_30855">
<rect width="261" height="64" fill="white"/>
</clipPath>
</defs>
</svg>
